Coordinates
version=1
nRows=10
nColumns=33
inDegrees=yes

Units are S.I. units (second, meters, Newtons, ...)
Angles are in degrees.

endheader
time	ground_thorax_rot_x	ground_thorax_rot_y	ground_thorax_rot_z	ground_thorax_tx	ground_thorax_ty	ground_thorax_tz	clav_prot_r	clav_elev_r	scapula_abduction_r	scapula_elevation_r	scapula_upward_rot_r	scapula_winging_r	shoulder_elv_r	plane_of_elev_r	axial_rot_r	elbow_flexion_r	pro_sup_r	wrist_flex_r	wrist_dev_r	clav_prot_l	clav_elev_l	scapula_abduction_l	scapula_elevation_l	scapula_upward_rot_l	scapula_winging_l	shoulder_elv_l	plane_of_elev_l	axial_rot_l	elbow_flexion_l	pro_sup_l	wrist_flex_l	wrist_dev_l
      1.84000000	      1.76431084	      6.10681474	     -3.95763040	     -0.14983407	      1.00517029	      0.01087657	    -20.36043224	     -9.24502989	    -26.35649602	     -5.71662831	      9.64700775	      2.23070045	     64.54460057	    -49.79682102	     56.04419413	     88.31379877	     14.51511508	     22.17735047	     -3.17857431	     -1.03566242	     -0.77662521	     -1.79819013	     -5.37518678	     -0.44514125	      1.17393910	     43.60588306	    -51.89354638	    -21.29192717	     86.06447853	     12.08492424	     -5.71514387	    -18.97266690
      1.85000000	      1.77017108	      6.08882999	     -3.75073984	     -0.14990178	      1.00537439	      0.01084309	    -20.35696115	     -9.30785103	    -26.30733535	     -5.78873192	      9.69107569	      2.24549929	     64.53250343	    -49.70730216	     55.99359862	     88.35437296	     14.50308233	     22.17272385	     -3.17494285	     -1.02870916	     -0.81711203	     -1.84128223	     -5.32077395	     -0.40081483	      1.18074790	     43.61564801	    -51.79047132	    -21.29560614	     86.10394938	     12.07863815	     -5.70680391	    -18.96822188
      1.86000000	      1.78074576	      6.06172370	     -3.55031195	     -0.14992472	      1.00551723	      0.01082059	    -20.34709428	     -9.38538364	    -26.25212939	     -5.87765325	      9.74596644	      2.26967630	     64.51343543	    -49.59770512	     55.92697490	     88.40000283	     14.48550296	     22.15686460	     -3.16501246	     -1.01814839	     -0.85839781	     -1.89400722	     -5.26604962	     -0.35987452	      1.19727570	     43.62315092	    -51.67822141	    -21.30714678	     86.14998980	     12.06937149	     -5.69181123	    -18.95809977
      1.87000000	      1.73479174	      5.99899829	     -3.75393170	     -0.15016953	      1.00539944	      0.01104259	    -20.33376943	     -9.36035969	    -26.29154997	     -5.81805593	      9.64019757	      2.28497392	     63.49501152	    -49.06679156	     54.44655993	     88.63874509	     13.23962234	     19.69678804	     -0.96116479	     -0.91875061	     -0.85723590	     -2.02185176	     -5.31094524	     -0.46768468	      1.21706871	     43.83091040	    -51.12809442	    -21.10328712	     86.61890205	     11.13399000	     -4.00468232	    -16.96907269
      1.88000000	      1.83654122	      5.95261341	     -3.85857914	     -0.15009922	      1.00553727	      0.01108340	    -20.35654649	     -9.54528264	    -26.25316147	     -6.01115902	      9.70463860	      2.35195547	     63.31460573	    -48.80678871	     53.97836553	     88.74465407	     13.01122197	     19.34208041	     -0.59538284	     -0.93220587	     -1.04357535	     -2.02723053	     -5.15312316	     -0.49908700	      1.17765078	     43.82880429	    -50.75685929	    -20.90428663	     86.70687718	     10.93613793	     -3.72627879	    -16.58501495
      1.89000000	      1.73786366	      5.92748224	     -3.79957488	     -0.15027573	      1.00566564	      0.01117169	    -20.32510280	     -9.65999167	    -26.24378726	     -6.07608976	      9.59128131	      2.43507495	     62.75125276	    -48.51361782	     53.15624185	     88.74535365	     12.50717506	     18.24175376	      0.33048915	     -0.86549218	     -1.05722725	     -2.13775309	     -5.15622897	     -0.53572584	      1.20340441	     44.04985738	    -50.48398616	    -20.87720400	     86.93212501	     10.51363645	     -3.04381813	    -15.77501830
      1.90000000	      1.78067419	      5.87648082	     -3.59804996	     -0.15029221	      1.00567467	      0.01120389	    -20.29825139	     -9.76274462	    -26.14115060	     -6.19061268	      9.65599023	      2.47037916	     62.72141111	    -48.34270281	     53.07604448	     88.80730548	     12.48444669	     18.21465246	      0.35857295	     -0.82781446	     -1.09720000	     -2.22690647	     -5.10960994	     -0.51201254	      1.22490879	     44.04757369	    -50.35040021	    -20.93617295	     86.97569482	     10.49934851	     -3.00943488	    -15.75094017
      1.91000000	      1.84048419	      5.92277981	     -3.88608969	     -0.15027386	      1.00598367	      0.01127134	    -20.35132017	    -10.04261992	    -26.20141951	     -6.43463982	      9.60722994	      2.60937022	     62.13430694	    -47.95823808	     51.92975416	     88.80164167	     11.98058507	     17.01112921	      1.28759529	     -0.82767409	     -1.29047782	     -2.29309981	     -4.91566679	     -0.46676278	      1.21541477	     44.10577327	    -49.74185556	    -20.73093111	     86.95270980	     10.03936060	     -2.37666378	    -14.85261427
      1.92000000	      1.79957644	      5.87247808	     -3.66355549	     -0.15065157	      1.00539025	      0.01134427	    -20.14614163	     -9.76915689	    -25.99825801	     -6.12217946	      9.46353377	      2.52419050	     61.45407292	    -47.42111769	     50.86835779	     88.94239995	     11.32992941	     15.41194026	      2.99101187	     -0.70938752	     -1.13792017	     -2.40720670	     -5.11308180	     -0.61131667	      1.25445632	     44.30386569	    -49.38814731	    -20.79908645	     87.37507097	      9.27483311	     -1.32396253	    -13.49124623
      1.93000000	      1.83376768	      5.84705074	     -3.53180636	     -0.15075249	      1.00568058	      0.01137041	    -20.08301195	     -9.98745157	    -25.82683845	     -6.33204342	      9.50211486	      2.62012130	     61.33384817	    -47.14512087	     50.68411946	     88.75976870	     11.29145148	     15.25361207	      3.10890640	     -0.66034195	     -1.25550077	     -2.53306187	     -4.99821439	     -0.59264507	      1.27021336	     44.34353234	    -49.16117661	    -20.81986831	     87.24652548	      9.22530191	     -1.24797878	    -13.36212265
